<svg width="48" height="48" viewBox="0 0 48 48" fill="none" xmlns="http://www.w3.org/2000/svg">
<circle cx="24" cy="24" r="24" fill="white"/>
<path d="M32.7429 18.7162H29.9143C29.6 18.7162 29.2857 18.5735 29.0571 18.3452L27.9143 17.0611C27.5714 16.6902 27.0286 16.6617 26.6286 16.9755L26.5429 17.0611L25.5714 18.174C25.2571 18.545 24.7714 18.7447 24.2857 18.7447H8.82857C8.4 20.0002 8.11429 21.3414 8 22.6825H22.6286C22.8857 22.6825 23.1429 22.5684 23.3143 22.3972L24.6857 20.9704C24.8571 20.7992 25.0857 20.6851 25.3429 20.6851H25.4C25.6571 20.6851 25.9143 20.7992 26.0857 20.999L27.2286 22.283C27.4571 22.5399 27.7714 22.6825 28.0857 22.6825H40C39.8857 21.3414 39.6 20.0002 39.1714 18.7447H32.7429V18.7162ZM23.3714 26.5918L22.2286 25.3077C21.8857 24.9368 21.3429 24.9083 20.9429 25.2221L20.8571 25.3077L19.8571 26.4206C19.5429 26.7916 19.0857 26.9913 18.6 26.9913H8.22857C8.48571 28.361 8.94286 29.7021 9.54286 30.9862H16.8286C17.0857 30.9862 17.3143 30.8721 17.5143 30.7008L18.8857 29.2741C19.0571 29.1029 19.2857 28.9888 19.5429 28.9888H19.6C19.8571 28.9888 20.1143 29.1029 20.2857 29.3026L21.4286 30.5867C21.6571 30.8435 21.9714 30.9862 22.2857 30.9862H38.4571C39.0571 29.7307 39.5143 28.3895 39.7714 26.9913H24.2286C23.8857 26.9913 23.5714 26.8486 23.3714 26.5918ZM28.9714 14.1506L30.3429 12.7238C30.5143 12.5526 30.7429 12.4385 31 12.4385H31.0571C31.3143 12.4385 31.5714 12.5526 31.7429 12.7238L32.8857 14.0079C33.1143 14.2647 33.4286 14.3789 33.7429 14.3789H36.8286C31.4571 7.3022 21.3714 5.90398 14.2571 11.24C13.0857 12.1246 12.0286 13.1804 11.1143 14.3789H28.2857C28.5714 14.4359 28.8 14.3218 28.9714 14.1506ZM17.9143 34.924C17.5714 34.924 17.2571 34.7813 17.0571 34.5531L15.9143 33.269C15.5714 32.898 15 32.8695 14.6286 33.2119L14.5714 33.269L13.5714 34.3819C13.2571 34.7528 12.8 34.9526 12.3143 34.9526H12.2571C18.2857 41.4015 28.4857 41.7153 34.9714 35.6374C35.2286 35.4091 35.4571 35.1523 35.7143 34.8955H17.9143V34.924Z" fill="black"/>
</svg>
