<svg width="48" height="48" viewBox="0 0 48 48" fill="none" xmlns="http://www.w3.org/2000/svg">
<g clip-path="url(#clip0_13386_15374)">
<rect width="48" height="48" fill="white"/>
<path fill-rule="evenodd" clip-rule="evenodd" d="M23.6897 44.7182C29.7813 44.7182 35.2634 42.0919 39.0676 37.9059L38.0547 36.7855C36.8016 35.3997 34.6665 35.2814 33.2682 36.5201L31.1079 38.4348C28.1697 41.0378 23.7058 40.8746 20.9666 38.0619L19.6166 36.6761C18.3205 35.3441 16.1962 35.2993 14.8427 36.5721L10.8826 40.2992C14.4124 43.0689 18.8583 44.72 23.6897 44.72V44.7182ZM40.9804 34.1412L41.4716 34.6862C43.3862 31.531 44.4887 27.8237 44.4887 23.86C44.4887 19.0537 42.8681 14.6257 40.1432 11.0977C39.6377 11.2285 39.1518 11.4777 38.7341 11.847L36.5757 13.7599C33.6375 16.3629 29.1736 16.1997 26.4343 13.387L25.0844 12.0012C23.7883 10.6692 21.6639 10.6226 20.3104 11.8972L14.7548 17.1248L12.0514 14.2529L17.607 9.02531C20.5273 6.27708 25.1113 6.37747 27.9097 9.25119L29.2597 10.637C30.5289 11.9403 32.5977 12.0156 33.9601 10.8091L36.1186 8.89623C36.4807 8.57534 36.8661 8.29567 37.2695 8.05903C33.6249 4.90565 28.8796 3 23.6897 3C13.2543 3 4.61523 10.7051 3.11832 20.7514C5.96515 19.1075 9.66351 19.5378 12.055 21.9938L13.6164 23.5965C14.8301 24.8424 16.7877 24.9751 18.1574 23.9012L22.7862 20.2746C25.5649 18.0982 29.4981 18.204 32.1549 20.5256L38.4581 26.0328L35.864 29.0033L29.5608 23.4961C28.3292 22.4205 26.506 22.3703 25.2189 23.3796L20.5901 27.0062C17.6357 29.3206 13.4103 29.0374 10.7911 26.3483L9.22968 24.7456C7.93354 23.4136 5.80918 23.367 4.45568 24.6416L3 26.0113C3.44997 30.4177 5.26778 34.4173 8.02139 37.576L12.1428 33.6984C15.0632 30.9502 19.6471 31.0506 22.4456 33.9243L23.7955 35.3101C25.0647 36.6134 27.1335 36.6887 28.4942 35.4822L30.6526 33.5693C33.6697 30.8946 38.2788 31.151 40.9822 34.1412H40.9804Z" fill="url(#paint0_linear_13386_15374)"/>
</g>
<defs>
<linearGradient id="paint0_linear_13386_15374" x1="19.7242" y1="3.79417" x2="27.9653" y2="45.4962" gradientUnits="userSpaceOnUse">
<stop stop-color="#780000"/>
<stop offset="1" stop-color="#C1121F"/>
</linearGradient>
<clipPath id="clip0_13386_15374">
<rect width="48" height="48" rx="24" fill="white"/>
</clipPath>
</defs>
</svg>
