<svg width="48" height="48" viewBox="0 0 48 48" fill="none" xmlns="http://www.w3.org/2000/svg">
<circle cx="24" cy="24" r="24" fill="white"/>
<path fill-rule="evenodd" clip-rule="evenodd" d="M31.172 21.346L31.1715 21.3474C32.4861 22.9843 33.2717 25.0576 33.2717 27.3127C33.2717 29.6012 32.4625 31.7027 31.1125 33.3507L30.9962 33.4926L30.9654 33.3123C30.9392 33.1589 30.9084 33.0041 30.8726 32.848C30.1969 29.8999 27.9956 27.3719 24.3724 25.3251C21.9257 23.9466 20.5252 22.2868 20.1575 20.401C19.9201 19.1815 20.0966 17.9566 20.4378 16.9075C20.7789 15.8587 21.2863 14.98 21.7173 14.4509L21.7176 14.4506L23.127 12.7391C23.3742 12.439 23.8368 12.439 24.084 12.7391L31.172 21.346ZM33.4013 19.6361L33.4016 19.6354L23.9547 8.16427C23.7743 7.94524 23.4366 7.94524 23.2562 8.16427L13.8092 19.6356L13.8095 19.6362L13.7788 19.674C12.0403 21.8163 11 24.5388 11 27.5024C11 34.4045 16.6435 40 23.6055 40C30.5674 40 36.2109 34.4045 36.2109 27.5024C36.2109 24.5388 35.1706 21.8164 33.4322 19.674L33.4013 19.6361ZM16.0696 21.309L16.07 21.3086L16.915 20.2825L16.9405 20.4719C16.9607 20.622 16.9853 20.7728 17.0144 20.9243C17.5611 23.773 19.5142 26.1483 22.7795 27.988C25.6179 29.5922 27.2705 31.437 27.7467 33.4602C27.9453 34.3045 27.9807 35.1352 27.8947 35.8616L27.8893 35.9065L27.8484 35.9264C26.5674 36.5479 25.1272 36.8967 23.6052 36.8967C18.2666 36.8967 13.9387 32.6059 13.9387 27.3127C13.9387 25.0401 14.7365 22.9518 16.0696 21.309Z" fill="#4CA3FF"/>
</svg>
