<svg width="48" height="48" viewBox="0 0 48 48" fill="none" xmlns="http://www.w3.org/2000/svg">
<circle cx="24" cy="24" r="24" fill="white"/>
<path d="M22.8961 0.000479998C23.768 0.000479998 24.6402 0.000479998 25.5121 0.000479998C25.5292 0.0163199 25.5452 0.0448798 25.5635 0.0463198C25.797 0.0652797 26.0307 0.0777596 26.2643 0.0971995C26.5211 0.118559 26.7783 0.136799 27.0335 0.171599C27.3803 0.218879 27.7261 0.275039 28.0703 0.337678C28.5231 0.419998 28.9758 0.504237 29.4251 0.602877C29.762 0.676797 30.0949 0.771116 30.4278 0.863276C30.7882 0.963355 31.1492 1.06343 31.5049 1.17887C31.8375 1.28687 32.1678 1.40471 32.4918 1.53671C33.1153 1.79063 33.7462 2.03159 34.3508 2.32607C35.0355 2.65967 35.701 3.03478 36.3634 3.41182C37.1228 3.8443 37.8368 4.34854 38.533 4.8751C38.9775 5.21109 39.4066 5.56869 39.8297 5.93133C40.1504 6.20613 40.4626 6.49293 40.7578 6.79485C41.2234 7.27124 41.6765 7.76036 42.1243 8.25332C42.3941 8.5502 42.6571 8.85524 42.9 9.17419C43.243 9.62467 43.5684 10.0886 43.8939 10.5518C44.406 11.2804 44.8632 12.0441 45.2664 12.8373C45.5758 13.4457 45.8645 14.0658 46.1342 14.693C46.3615 15.2207 46.5593 15.7619 46.7494 16.3046C46.8986 16.7306 47.0237 17.1657 47.1454 17.6006C47.263 18.0203 47.3755 18.442 47.4665 18.868C47.5632 19.3213 47.6371 19.78 47.7115 20.2379C47.7746 20.6272 47.8332 21.0177 47.8771 21.4093C47.9143 21.7403 47.927 22.0741 47.9537 22.4063C47.9554 22.4267 47.9837 22.4449 47.9998 22.4641V25.5361C47.9837 25.5572 47.9554 25.5774 47.9539 25.5995C47.9482 25.6871 47.9585 25.7761 47.9491 25.863C47.9045 26.2837 47.862 26.7049 47.8058 27.1242C47.747 27.5648 47.689 28.0064 47.6026 28.4423C47.4941 28.9895 47.3669 29.5335 47.2294 30.0745C47.1086 30.5497 46.9716 31.021 46.8252 31.489C46.7196 31.8265 46.5974 32.1596 46.4642 32.4872C46.2106 33.1114 45.966 33.741 45.6766 34.3486C45.3893 34.9515 45.0588 35.5342 44.7341 36.1184C44.3035 36.8926 43.8027 37.6227 43.2759 38.3328C42.8928 38.8491 42.4776 39.3423 42.0624 39.8336C41.7924 40.153 41.5083 40.4626 41.2092 40.7552C40.7304 41.2234 40.2392 41.6796 39.7428 42.1296C39.4719 42.3751 39.187 42.6067 38.8961 42.8285C38.4178 43.1926 37.9356 43.5521 37.4441 43.8979C36.7193 44.4082 35.9585 44.863 35.1687 45.2643C34.5603 45.5734 33.9402 45.8614 33.3133 46.1309C32.7783 46.361 32.2287 46.5588 31.6808 46.7575C31.3662 46.8715 31.0431 46.963 30.722 47.0578C30.4057 47.1511 30.0898 47.2507 29.768 47.3213C29.1963 47.447 28.622 47.5625 28.0455 47.6642C27.5607 47.7497 27.0726 47.8183 26.5839 47.8771C26.2494 47.9174 25.9115 47.9273 25.5752 47.9539C25.5529 47.9556 25.533 47.9839 25.5119 48H22.8959C22.8904 47.9947 22.8851 47.9849 22.8791 47.9844C22.492 47.957 22.1046 47.933 21.7175 47.903C21.4648 47.8834 21.2116 47.8627 20.9605 47.8282C20.614 47.7806 20.2681 47.725 19.9237 47.6626C19.4865 47.5836 19.0492 47.5027 18.6153 47.407C18.2629 47.3292 17.9147 47.2325 17.567 47.1362C17.2031 47.0357 16.8393 46.9339 16.4805 46.8175C16.1517 46.7107 15.825 46.5943 15.5054 46.4633C14.8754 46.2048 14.2384 45.9581 13.6269 45.6605C12.9455 45.3291 12.2815 44.9599 11.6239 44.5827C10.8698 44.1499 10.1579 43.6498 9.46603 43.1247C9.02227 42.7877 8.59292 42.4311 8.1698 42.0682C7.84916 41.7934 7.53644 41.5071 7.24196 41.2047C6.74949 40.6995 6.27285 40.1789 5.79237 39.6622C5.65437 39.5136 5.51997 39.3608 5.39493 39.2012C5.15469 38.8944 4.91494 38.5868 4.68862 38.2697C4.36606 37.8181 4.04038 37.3671 3.74446 36.8979C3.40822 36.3646 3.08518 35.821 2.79071 35.2637C2.48135 34.6786 2.20103 34.0772 1.92983 33.4731C1.74431 33.0601 1.58591 32.6341 1.43375 32.2074C1.24991 31.6921 1.07183 31.1739 0.917275 30.6495C0.782156 30.1909 0.675357 29.7231 0.570237 29.2563C0.474238 28.8308 0.387118 28.4027 0.314638 27.9726C0.238559 27.5219 0.172079 27.0687 0.124319 26.6144C0.0751196 26.146 0.0535197 25.6746 0.0189599 25.2044C0.0165599 25.1706 0.00647997 25.1375 0 25.1039C0 24.3678 0 23.632 0 22.8959C0.0160799 22.7207 0.0338398 22.5457 0.0475198 22.3703C0.0731996 22.042 0.0863996 21.7125 0.123599 21.3853C0.167999 20.9937 0.225359 20.6032 0.289679 20.2141C0.365758 19.7526 0.443758 19.2909 0.542397 18.8341C0.633597 18.4122 0.739916 17.9927 0.863276 17.5792C1.04327 16.9761 1.22831 16.3737 1.44095 15.7816C1.64975 15.2003 1.87727 14.6238 2.12975 14.0603C2.46455 13.3139 2.84735 12.5906 3.26038 11.8831C3.74854 11.0467 4.2895 10.246 4.86886 9.47227C5.20485 9.02323 5.56821 8.59388 5.93373 8.16812C6.20877 7.84772 6.49941 7.53956 6.79653 7.23932C7.11668 6.9158 7.44836 6.60333 7.78292 6.29445C8.04356 6.05373 8.3102 5.81877 8.58452 5.59389C8.96155 5.28453 9.34051 4.97638 9.73339 4.68766C10.1774 4.36126 10.6271 4.04062 11.0932 3.74734C11.6527 3.39502 12.2193 3.04966 12.8061 2.74655C13.4817 2.39759 14.1746 2.07839 14.8756 1.78343C15.4593 1.53791 16.0638 1.34015 16.6629 1.13255C17.0006 1.01543 17.3426 0.907915 17.6889 0.820076C18.1838 0.694557 18.6813 0.576477 19.1829 0.482158C19.8165 0.362878 20.4534 0.257999 21.0921 0.170879C21.5509 0.108239 22.0153 0.0854396 22.4773 0.0439198C22.617 0.0311998 22.7564 0.0148799 22.8961 0V0.000479998ZM23.3281 41.6444C23.3591 41.6504 23.39 41.6614 23.421 41.6616C23.8242 41.6628 24.2274 41.6628 24.6306 41.6616C24.6515 41.6616 24.6726 41.6484 24.6935 41.6412C24.7189 41.6343 24.7444 41.622 24.77 41.6211C25.9479 41.5779 27.1098 41.4147 28.2524 41.1293C31.6414 40.2831 34.5277 38.5748 36.9123 36.0265C38.7159 34.0993 40.0313 31.8793 40.8344 29.3607C41.2767 27.9735 41.5378 26.553 41.6213 25.0996C41.6283 25.0648 41.641 25.0302 41.6412 24.9954C41.6477 24.476 41.6561 23.9567 41.6559 23.4373C41.6559 23.2669 41.6326 23.0965 41.6201 22.9261C41.6196 22.9021 41.6201 22.8781 41.6184 22.8541C41.5584 21.9798 41.4286 21.1168 41.2412 20.2595C40.9078 18.7367 40.3956 17.2804 39.6754 15.8987C38.4087 13.4695 36.6713 11.4376 34.4686 9.81139C31.537 7.6466 28.2395 6.52005 24.6008 6.38253C24.5699 6.37653 24.5389 6.36597 24.508 6.36549C24.2332 6.36237 23.9581 6.35877 23.6833 6.36021C23.5885 6.36069 23.494 6.37461 23.3994 6.38253C18.7823 6.57405 14.7998 8.26148 11.5351 11.5336C8.273 14.8034 6.57597 18.7825 6.38205 23.3996C6.37605 23.4306 6.36549 23.4616 6.36501 23.4925C6.36189 23.7673 6.35829 24.0424 6.35973 24.3172C6.36021 24.412 6.37413 24.5065 6.38205 24.6011C6.39957 24.9097 6.40941 25.2193 6.43581 25.5272C6.55845 26.9579 6.84573 28.3549 7.31204 29.7138C8.22452 32.3727 9.69643 34.6769 11.7067 36.6397C13.0003 37.9025 14.451 38.9463 16.065 39.7594C18.1833 40.8264 20.427 41.4404 22.7948 41.5966C22.9727 41.6084 23.15 41.628 23.3276 41.6441L23.3281 41.6444Z" fill="#7A2BF9"/>
<path d="M41.6211 25.0994C41.5376 26.5528 41.2762 27.9733 40.8342 29.3605C40.0311 31.8791 38.7157 34.0991 36.9121 36.0263C34.5275 38.5746 31.6412 40.2829 28.2522 41.1291C27.1096 41.4145 25.9477 41.5777 24.7698 41.6209C24.7442 41.6218 24.7187 41.6341 24.6933 41.641C24.2382 41.6422 23.783 41.6432 23.3279 41.6444C23.1503 41.6283 22.973 41.6086 22.7951 41.5969C20.4273 41.4406 18.1835 40.8267 16.0653 39.7597C14.4513 38.9466 13.0005 37.9028 11.7069 36.6399C9.69647 34.677 8.22479 32.373 7.31232 29.7141C6.846 28.3552 6.55848 26.9584 6.43608 25.5275C6.40968 25.2196 6.39984 24.9102 6.38232 24.6014V23.3999C6.576 18.7828 8.27328 14.8036 11.5353 11.5339C14.7998 8.26176 18.7826 6.57433 23.3997 6.38281C23.8002 6.38281 24.2006 6.38281 24.6011 6.38281C28.2397 6.52033 31.5373 7.64689 34.4689 9.81168C36.6716 11.4381 38.409 13.4697 39.6757 15.899C40.3959 17.2807 40.9081 18.737 41.2414 20.2598C41.4291 21.1168 41.5589 21.9799 41.6187 22.8544C41.6204 22.8784 41.6199 22.9024 41.6204 22.9262C41.6288 23.3243 41.6432 23.7225 41.6441 24.1206C41.6449 24.447 41.6295 24.7734 41.6213 25.0998L41.6211 25.0994ZM16.8016 12.4058C16.6764 12.4147 16.5513 12.4238 16.426 12.4327C16.2508 12.4476 16.0754 12.4589 15.9007 12.4781C14.7818 12.6012 13.6965 12.8534 12.6785 13.3469C11.7533 13.7954 10.9658 14.406 10.3838 15.2721C9.89303 16.0022 9.63671 16.8014 9.57503 17.6712C9.57455 17.9397 9.57431 18.2083 9.57383 18.4766C9.60287 18.7224 9.62087 18.9703 9.66263 19.2139C9.83663 20.2233 10.2017 21.1667 10.6802 22.067C11.7744 24.1247 13.2926 25.8352 15.0388 27.3558C15.3364 27.615 15.7514 27.6081 16.067 27.3657C16.2825 27.2001 16.4966 27.0328 16.7133 26.8689C18.1199 25.8045 19.5861 24.8291 21.1027 23.9286C21.471 23.71 21.6626 23.3802 21.6923 22.9566C21.7134 22.6562 21.7182 22.3543 21.7446 22.0543C21.8056 21.3619 21.8594 20.6683 21.9443 19.9785C22.1241 18.522 22.4001 17.0832 22.8004 15.6703C22.9233 15.2366 23.0591 14.8063 23.1976 14.3772C23.2838 14.1098 23.4993 14.0088 23.7664 14.0935C23.9375 14.148 24.1086 14.2029 24.2795 14.2581C24.581 14.3556 24.6882 14.5634 24.5882 14.8617C24.2402 15.9004 23.9666 16.9586 23.7522 18.0326C23.555 19.0207 23.4059 20.0159 23.3092 21.0184C23.2547 21.5829 23.2247 22.1498 23.1837 22.7157C23.1748 22.8796 23.1657 23.0435 23.1568 23.2077C23.151 23.4722 23.145 23.7366 23.1393 24.0011C23.1407 24.3899 23.1422 24.779 23.1438 25.1678C23.1566 25.5462 23.1693 25.9247 23.182 26.3032C23.2144 26.8081 23.235 27.3141 23.2826 27.8176C23.3373 28.3981 23.3942 28.9799 23.4894 29.5547C23.6272 30.3856 23.799 31.2107 23.9591 32.0377C24.0266 32.3862 23.871 32.7025 23.5456 32.8405C23.2444 32.9684 22.9415 33.0932 22.6348 33.2072C22.499 33.2576 22.3533 33.2888 22.2095 33.3088C21.9758 33.3412 21.7583 33.2581 21.5536 33.1626C19.9603 32.4179 18.4065 31.6012 16.9389 30.6263C14.7712 29.1863 12.8155 27.5109 11.1825 25.4747C10.38 24.4739 9.67031 23.4119 9.13727 22.2424C8.90447 21.7315 8.72135 21.1977 8.51879 20.6733C8.48303 20.5804 8.44103 20.5031 8.32751 20.5103C8.2176 20.5173 8.18592 20.6006 8.16744 20.6911C8.14344 20.8084 8.11464 20.9253 8.09904 21.0439C8.02128 21.6405 7.94712 22.2376 7.87176 22.8342C7.86264 22.9679 7.85376 23.1014 7.84464 23.235C7.84488 23.7448 7.84536 24.2543 7.8456 24.7641C7.86984 25.0893 7.88712 25.4152 7.91952 25.7397C8.01792 26.728 8.21472 27.6973 8.49839 28.6489C8.94767 30.1557 9.60839 31.5637 10.4731 32.8765C10.5614 33.0107 10.674 33.0932 10.8393 33.0805C11.0049 33.0678 11.0949 32.9632 11.1705 32.8228C11.3594 32.4714 11.5445 32.1162 11.7602 31.7814C12.2712 30.9889 12.8959 30.2874 13.5564 29.6176C13.7769 29.3939 14.0901 29.3845 14.3402 29.5773C14.4194 29.6382 14.4988 29.6989 14.5764 29.7621C14.8603 29.9939 14.8795 30.3597 14.6265 30.6236C14.411 30.8488 14.1945 31.0734 13.9879 31.3064C13.4246 31.942 12.9043 32.6084 12.5253 33.375C12.3614 33.7067 12.2321 34.054 12.1982 34.4195C12.1589 34.845 12.3273 35.186 12.7766 35.4169C13.2415 35.6559 13.746 35.7296 14.2593 35.762C14.6078 35.762 14.9563 35.762 15.3045 35.7618C15.3645 35.7596 15.4245 35.7599 15.4843 35.7551C16.5144 35.6735 17.5274 35.4891 18.5303 35.2451C19.9603 34.8968 21.3532 34.4329 22.7248 33.9028C25.0463 33.0054 27.2812 31.9261 29.4443 30.6973C31.4348 29.5667 33.3411 28.3091 35.1349 26.8837C35.1971 26.8343 35.2439 26.7861 35.2487 26.7001C35.2724 26.2773 35.3003 25.8546 35.3264 25.432C35.3334 25.1147 35.3403 24.7972 35.3475 24.4799C35.3552 24.4458 35.3694 24.412 35.3696 24.3779C35.3723 23.9562 35.3749 23.5346 35.3732 23.1126C35.3727 22.9914 35.3588 22.8705 35.3511 22.7493C35.343 22.4253 35.3348 22.1013 35.3264 21.7773C35.2995 21.3559 35.2825 20.9335 35.2434 20.513C35.1999 20.0459 35.1397 19.5801 35.0809 19.1147C34.8887 17.5977 34.5666 16.1083 34.1036 14.6508C33.7263 13.463 33.2521 12.3175 32.5772 11.2637C32.1498 10.596 31.6564 9.98567 31.0019 9.5232C30.2946 9.02376 29.5285 8.84136 28.6881 9.1248C28.1113 9.31944 27.6381 9.67896 27.2128 10.1038C26.6572 10.6589 26.218 11.3009 25.8306 11.9803C25.6638 12.2731 25.7481 12.5047 26.0639 12.6264C28.7313 13.6553 31.202 15.0372 33.4832 16.7589C33.8547 17.0392 34.0952 17.4091 34.1783 17.8704C34.2426 18.228 34.2944 18.588 34.3518 18.947C34.4456 19.5345 34.1175 20.0349 33.542 20.1775C32.2734 20.4919 31.0304 20.8888 29.8057 21.3443C27.8941 22.0552 26.0423 22.8995 24.2363 23.8458C23.9956 23.9718 23.7765 23.8415 23.7839 23.5691C23.7916 23.2989 23.824 23.0289 23.8262 22.7589C23.8283 22.4939 23.9505 22.3334 24.1823 22.217C25.3677 21.6218 26.5696 21.064 27.7957 20.5581C29.5067 19.8523 31.2498 19.2422 33.0474 18.7948C33.1998 18.7569 33.3524 18.7207 33.524 18.6789C33.4827 18.6412 33.4604 18.6189 33.4362 18.599C31.7387 17.207 29.9029 16.0296 27.9335 15.0604C25.7872 14.0042 23.5497 13.2144 21.1991 12.7543C20.3839 12.5947 19.5619 12.4843 18.7324 12.4329C18.5987 12.4241 18.4653 12.4149 18.3316 12.4061C18.0763 12.4001 17.8209 12.3943 17.5653 12.3883C17.5499 12.3883 17.5343 12.3881 17.519 12.3878C17.2792 12.3938 17.0395 12.3998 16.8 12.4061L16.8016 12.4058ZM36.8231 24.1019C36.8216 24.3323 36.8199 24.5627 36.8185 24.7929C36.8163 24.8728 36.8158 24.9527 36.8118 25.0324C36.8079 25.1111 36.8247 25.1894 36.909 25.2004C36.9706 25.2086 37.0587 25.1939 37.0998 25.1534C37.3784 24.8788 37.6508 24.5975 37.9191 24.3126C38.072 24.1506 38.0902 23.9805 37.9782 23.7861C37.8349 23.5372 37.6858 23.2912 37.532 23.0488C37.4187 22.8702 37.2939 22.6989 37.173 22.5251C37.1206 22.4498 37.0498 22.4054 36.9572 22.4385C36.8703 22.4695 36.8055 22.5244 36.8151 22.6319C36.8202 22.6874 36.8185 22.7435 36.8197 22.7994C36.819 22.8871 36.8182 22.9746 36.8175 23.0622C36.8192 23.4088 36.8211 23.7551 36.8228 24.1017L36.8231 24.1019ZM24.7432 40.155C24.8754 40.1461 25.0077 40.1372 25.1402 40.1281C25.4404 40.0998 25.7404 40.071 26.0406 40.0431C26.1616 40.0321 26.2612 39.9858 26.2979 39.8631C26.3373 39.7323 26.2787 39.6361 26.1769 39.5506C25.768 39.2072 25.4133 38.8124 25.0919 38.3871C24.4346 37.5176 23.943 36.5564 23.5235 35.5554C23.427 35.3255 23.2617 35.2549 23.033 35.3348C22.2719 35.601 21.5142 35.8777 20.7472 36.1251C19.66 36.4758 18.5555 36.7695 17.4285 36.9601C16.756 37.0739 16.0752 37.1389 15.3976 37.2217C15.2935 37.2344 15.2241 37.2774 15.1936 37.376C15.1632 37.4751 15.1939 37.5567 15.2769 37.6182C15.2992 37.6347 15.3235 37.6491 15.347 37.6643C17.106 38.785 19.0113 39.5372 21.0635 39.9046C21.6482 40.0093 22.2434 40.0549 22.8335 40.1276C22.9672 40.1367 23.1009 40.1456 23.2348 40.1547C23.7376 40.1547 24.2404 40.1547 24.7434 40.1547L24.7432 40.155ZM24.5272 7.84489C24.4406 7.83793 24.3539 7.82449 24.2673 7.82545C24.0016 7.82857 23.7362 7.83745 23.4707 7.84417C23.3349 7.85305 23.1993 7.86169 23.0634 7.87057C22.9612 7.87921 22.8585 7.88568 22.7565 7.89696C22.2489 7.95336 21.7374 7.98744 21.2347 8.0724C19.3919 8.3844 17.6527 8.99784 16.0317 9.93095C15.5582 10.2036 15.107 10.5146 14.6462 10.8089C14.5603 10.8636 14.5132 10.9401 14.5528 11.0426C14.5917 11.1432 14.6755 11.1581 14.7715 11.1369C14.7986 11.1309 14.8264 11.1264 14.854 11.1235C15.4214 11.0637 15.9885 11.0042 16.5559 10.9447C16.5717 10.9464 16.5876 10.95 16.6032 10.9495C17.0006 10.9401 17.3978 10.926 17.7952 10.9222C18.0619 10.9195 18.3285 10.9315 18.5951 10.937C18.7139 10.9476 18.8327 10.9586 18.9515 10.9687C19.2614 10.9949 19.5724 11.0114 19.8808 11.0486C21.0842 11.1938 22.2698 11.43 23.4383 11.7525C23.5454 11.7821 23.6536 11.8272 23.7618 11.8289C24.0774 11.8339 24.3194 11.699 24.477 11.4161C25.0864 10.3231 25.7985 9.31176 26.7887 8.52264C26.8727 8.45568 26.9142 8.36952 26.8873 8.25888C26.8573 8.13576 26.776 8.06088 26.655 8.0472C26.1035 7.98576 25.551 7.93008 24.999 7.87224C24.8418 7.86288 24.6846 7.85376 24.5274 7.8444L24.5272 7.84489ZM37.9666 19.6787C37.7168 19.6778 37.467 19.6768 37.2171 19.6761C37.0297 19.7421 37.015 19.9785 37.1302 20.1105C37.7478 20.8185 38.3214 21.5603 38.8225 22.3569C38.9588 22.5736 39.2682 22.5688 39.3843 22.3399C39.5192 22.0739 39.632 21.7965 39.7453 21.5203C39.8492 21.2673 39.8581 20.9975 39.8401 20.7299C39.817 20.386 39.5931 20.176 39.3121 20.0239C38.8938 19.7978 38.4373 19.7075 37.9666 19.6785V19.6787ZM37.0319 18.1953C37.3287 18.2025 37.6258 18.21 37.9227 18.2172C38.1766 18.2452 38.431 18.2685 38.684 18.3028C38.9115 18.3336 39.0745 18.1454 38.9986 17.9292C38.9881 17.8992 38.9749 17.8699 38.9626 17.8404C38.2642 16.1433 37.2973 14.6145 36.0719 13.2504C35.7757 12.9209 35.4553 12.6132 35.1467 12.2949C35.0835 12.2297 35.0108 12.2064 34.9314 12.2553C34.8495 12.306 34.8294 12.3852 34.8587 12.4752C34.8771 12.5321 34.9002 12.5873 34.922 12.6432C35.0101 12.87 35.1015 13.0956 35.186 13.3238C35.6905 14.6868 36.0457 16.0898 36.3085 17.5178C36.3783 17.8975 36.6421 18.1396 37.0316 18.1956L37.0319 18.1953ZM39.314 28.6271C39.314 28.3506 39.314 28.0744 39.3138 27.7979C39.2794 27.2327 39.17 26.6812 39.0073 26.1402C38.912 25.8234 38.5789 25.7483 38.3367 25.9782C37.9309 26.3632 37.5325 26.7575 37.1074 27.1204C36.7726 27.4062 36.6032 27.7477 36.5516 28.18C36.375 29.6572 36.0987 31.1161 35.696 32.5496C35.6528 32.7032 35.6768 32.836 35.8031 32.9389C35.9255 33.0388 36.062 33.0443 36.1945 32.9656C36.5715 32.7414 36.9622 32.5352 37.3172 32.2799C37.9347 31.8354 38.4255 31.2714 38.7716 30.5867C39.0836 29.9689 39.2749 29.3195 39.3142 28.6271H39.314ZM31.9871 33.8898C32.4592 33.8483 32.9317 33.8108 33.4033 33.7633C33.6479 33.7386 33.813 33.5948 33.9035 33.3695C33.9524 33.2476 33.9915 33.1216 34.0319 32.9963C34.4183 31.797 34.6947 30.5716 34.9079 29.3308C34.9249 29.2309 34.9374 29.1397 34.8363 29.0759C34.7391 29.0145 34.6657 29.0651 34.5863 29.1196C33.8939 29.5931 33.2077 30.0762 32.505 30.5336C31.0009 31.5126 29.4366 32.3879 27.8404 33.207C27.7506 33.2531 27.6841 33.3076 27.6983 33.4168C27.711 33.514 27.7782 33.5584 27.8692 33.5747C28.7903 33.7396 29.7167 33.8576 30.6527 33.89C31.0974 33.89 31.5424 33.89 31.9871 33.89V33.8898ZM21.6503 25.6809V25.3218C20.9743 25.6014 17.0349 28.3444 16.7568 28.7265C18.5126 29.9968 20.3939 31.0417 22.3989 31.9057C22.3938 31.8589 22.3929 31.8356 22.3888 31.8126C22.2508 31.0422 22.0826 30.2759 21.9822 29.5007C21.8584 28.5438 21.791 27.5795 21.699 26.6185C21.6904 26.5288 21.6813 26.4393 21.6724 26.3495C21.6726 26.2667 21.676 26.1837 21.6726 26.1009C21.6674 25.961 21.658 25.821 21.6501 25.6811L21.6503 25.6809ZM30.3294 35.3356C30.3176 35.3336 30.3059 35.3307 30.2939 35.33C29.0824 35.2633 27.8857 35.0888 26.7028 34.8224C26.2396 34.718 25.7807 34.5947 25.3199 34.4795C25.1685 34.4415 25.0413 34.4898 24.9412 34.6002C24.8478 34.7031 24.8272 34.8284 24.881 34.9578C25.2865 35.9353 25.7682 36.8701 26.4371 37.6979C26.8705 38.2345 27.3635 38.7022 27.9976 38.9974C28.3605 39.1662 28.744 39.2694 29.1453 39.2365C29.7558 39.1866 30.2886 38.9326 30.7681 38.5594C31.4665 38.0161 31.9924 37.3254 32.4469 36.5766C32.6166 36.297 32.7724 36.0085 32.9226 35.7179C33.0174 35.5345 32.8856 35.3305 32.6826 35.3283C32.5669 35.3271 32.451 35.3329 32.3353 35.3356C31.9696 35.3411 31.6038 35.3509 31.238 35.3511C30.9352 35.3516 30.6323 35.3411 30.3294 35.3353V35.3356ZM35.8587 34.9667C35.8619 34.8102 35.744 34.7303 35.6063 34.7694C35.4107 34.8251 35.2172 34.8882 35.0204 34.9388C34.9223 34.964 34.8589 35.0144 34.8195 35.1063C34.7144 35.3519 34.6086 35.5971 34.4979 35.8403C34.455 35.9346 34.4627 36.0126 34.5471 36.0719C34.6304 36.1304 34.7137 36.1175 34.7859 36.0474C35.1241 35.7198 35.4625 35.3922 35.7987 35.0624C35.8307 35.031 35.8477 34.9847 35.8587 34.9664V34.9667ZM40.1713 24.2814C40.1739 24.2814 40.1768 24.2814 40.1794 24.2814C40.1794 24.2298 40.184 24.1775 40.178 24.1266C40.1737 24.0906 40.16 24.0302 40.1422 24.0268C40.1067 24.0203 40.0554 24.0352 40.0282 24.0602C39.8823 24.1946 39.8703 24.3777 39.9973 24.5286C40.0182 24.5536 40.069 24.573 40.0983 24.5654C40.1278 24.5574 40.1631 24.5152 40.1684 24.4835C40.1792 24.4178 40.1718 24.3489 40.1718 24.2814H40.1713Z" fill="#FFFEFF"/>
<path d="M41.6211 25.0995C41.6292 24.7731 41.6446 24.4467 41.6439 24.1203C41.6429 23.7221 41.6288 23.3239 41.6201 22.9258C41.6328 23.0964 41.6559 23.2668 41.6559 23.4372C41.6559 23.9566 41.6477 24.4759 41.6412 24.9953C41.6408 25.0301 41.6283 25.0647 41.6213 25.0995H41.6211Z" fill="#BDAADA"/>
<path d="M23.3281 41.6445C23.7832 41.6433 24.2384 41.6423 24.6935 41.6411C24.6726 41.6483 24.6515 41.6615 24.6306 41.6615C24.2274 41.6627 23.8242 41.6627 23.421 41.6615C23.39 41.6615 23.3591 41.6502 23.3281 41.6442V41.6445Z" fill="#6E3CBD"/>
<path d="M6.38202 23.3994V24.6008C6.3741 24.5063 6.36018 24.4115 6.3597 24.3169C6.35826 24.0421 6.36186 23.7671 6.36498 23.4923C6.36522 23.4613 6.37602 23.4304 6.38202 23.3994Z" fill="#B779FF"/>
<path d="M24.6008 6.38251C24.2003 6.38251 23.8 6.38251 23.3994 6.38251C23.494 6.37459 23.5888 6.36067 23.6833 6.36019C23.9581 6.35875 24.2332 6.36235 24.508 6.36547C24.5389 6.36595 24.5699 6.37651 24.6008 6.38251Z" fill="#B779FF"/>
<path d="M23.1843 22.7157C23.2253 22.1498 23.2551 21.5829 23.3098 21.0185C23.4065 20.016 23.5556 19.0207 23.7528 18.0326C23.9672 16.9586 24.2408 15.9005 24.5888 14.8618C24.6888 14.5632 24.5816 14.3554 24.2801 14.2582C24.1092 14.203 23.9381 14.148 23.767 14.0935C23.4999 14.0086 23.2844 14.1098 23.1982 14.3772C23.0597 14.8063 22.9239 15.2364 22.801 15.6703C22.4009 17.0834 22.1247 18.5222 21.9449 19.9785C21.8597 20.6683 21.806 21.3619 21.7453 22.0543C21.7189 22.3543 21.7141 22.6562 21.6929 22.9567C21.6632 23.3803 21.4717 23.71 21.1033 23.9287C19.5867 24.8292 18.1206 25.8043 16.7139 26.8689C16.4972 27.0328 16.2831 27.2001 16.0676 27.3657C15.752 27.6081 15.3371 27.6151 15.0395 27.3559C13.2932 25.8352 11.775 24.1248 10.6808 22.067C10.202 21.1668 9.837 20.2233 9.66324 19.2139C9.62124 18.9703 9.60324 18.7226 9.57444 18.4766C9.57492 18.2081 9.57516 17.9395 9.57564 17.671C9.63732 16.8012 9.89364 16.002 10.3844 15.2719C10.9667 14.4058 11.7539 13.7952 12.6791 13.3467C13.6971 12.853 14.7824 12.6007 15.9013 12.4779C16.076 12.4587 16.2514 12.4474 16.4264 12.4325C16.646 12.4248 16.8658 12.4169 17.0857 12.4092C17.2309 12.402 17.3761 12.3948 17.5213 12.3874C17.5366 12.3874 17.5522 12.3876 17.5676 12.3879C17.7123 12.3953 17.857 12.4027 18.002 12.4102L18.7345 12.4325C19.5639 12.4839 20.3859 12.5945 21.2012 12.7541C23.5515 13.2142 25.7892 14.004 27.9355 15.0602C29.905 16.0296 31.7407 17.2068 33.4382 18.5988C33.4625 18.6187 33.4848 18.641 33.5261 18.6787C33.3545 18.7205 33.2018 18.7567 33.0494 18.7946C31.2519 19.242 29.5087 19.8521 27.7978 20.5579C26.5716 21.0636 25.3697 21.6216 24.1844 22.2168C23.9525 22.3332 23.8304 22.4937 23.8282 22.7587C23.826 23.0289 23.7934 23.2987 23.786 23.5689C23.7783 23.8413 23.9976 23.9716 24.2384 23.8456C26.0444 22.8993 27.8962 22.055 29.8078 21.3441C31.0323 20.8886 32.2752 20.4919 33.5441 20.1773C34.1196 20.0347 34.4474 19.5343 34.3538 18.9468C34.2965 18.5877 34.2449 18.228 34.1803 17.8702C34.0973 17.4089 33.8568 17.039 33.4853 16.7587C31.2041 15.0372 28.7331 13.6553 26.066 12.6262C25.7501 12.5043 25.6659 12.2729 25.8327 11.9801C26.22 11.3004 26.6592 10.6584 27.2148 10.1036C27.6401 9.67875 28.1131 9.31923 28.6901 9.12459C29.5303 8.84116 30.2967 9.02356 31.0039 9.52299C31.6584 9.98523 32.1518 10.5955 32.5793 11.2635C33.2542 12.3173 33.7284 13.4626 34.1057 14.6506C34.5686 16.1083 34.8907 17.5975 35.083 19.1145C35.142 19.5801 35.202 20.0457 35.2454 20.5128C35.2846 20.9333 35.3016 21.3557 35.3285 21.7771C35.3294 22.0509 35.3292 22.3248 35.3321 22.5986C35.3326 22.6488 35.3458 22.6989 35.353 22.7491C35.3606 22.8703 35.3745 22.9912 35.375 23.1124C35.3767 23.5341 35.3741 23.9558 35.3714 24.3777C35.3714 24.4118 35.357 24.4456 35.3493 24.4797C35.3434 24.5107 35.3323 24.5414 35.3321 24.5724C35.3297 24.8589 35.3292 25.1452 35.3282 25.4318C35.3018 25.8544 35.2742 26.2771 35.2505 26.6999C35.2457 26.7859 35.1989 26.8341 35.1367 26.8835C33.343 28.3087 31.4369 29.5663 29.4461 30.6971C27.283 31.9259 25.0481 33.005 22.7266 33.9026C21.3548 34.4327 19.9621 34.8966 18.5322 35.2449C17.5292 35.4889 16.5162 35.6735 15.4861 35.7549C15.4263 35.7597 15.3663 35.7594 15.3063 35.7616C14.9579 35.7616 14.6094 35.7616 14.2609 35.7618C13.7473 35.7297 13.2428 35.6557 12.7782 35.4167C12.3289 35.1856 12.1604 34.8445 12.1998 34.4193C12.2336 34.0538 12.3627 33.7065 12.5269 33.3748C12.9059 32.6082 13.4262 31.9418 13.9895 31.3062C14.1961 31.0732 14.4126 30.8486 14.6281 30.6234C14.8808 30.3594 14.8619 29.9937 14.5779 29.7619C14.5004 29.6987 14.421 29.638 14.3418 29.5771C14.0917 29.3843 13.7785 29.3937 13.5579 29.6174C12.8977 30.2872 12.2727 30.9885 11.7618 31.7812C11.546 32.116 11.3608 32.4712 11.1721 32.8226C11.0965 32.9632 11.0065 33.0676 10.8409 33.0803C10.6756 33.093 10.563 33.0105 10.4747 32.8763C9.60996 31.5633 8.94924 30.1552 8.49996 28.6487C8.21629 27.6971 8.01949 26.7278 7.92109 25.7395C7.88869 25.415 7.87141 25.0891 7.84717 24.7639C7.84909 24.7202 7.85269 24.6765 7.85269 24.6326C7.85221 24.2769 7.85101 23.9215 7.85029 23.5658C7.85797 23.322 7.86565 23.0779 7.87309 22.834C7.94845 22.2372 8.02261 21.6401 8.10037 21.0434C8.11573 20.9249 8.14453 20.808 8.16877 20.6906C8.18725 20.6001 8.21893 20.5169 8.32885 20.5099C8.44237 20.5027 8.48412 20.58 8.52012 20.6729C8.72268 21.1975 8.9058 21.731 9.1386 22.242C9.6714 23.4115 10.3811 24.4735 11.1839 25.4743C12.8171 27.5107 14.7728 29.1861 16.9402 30.6258C18.4078 31.6007 19.9616 32.4174 21.5549 33.1622C21.7597 33.2577 21.9771 33.3407 22.2109 33.3083C22.3549 33.2884 22.5003 33.2572 22.6361 33.2068C22.9429 33.093 23.2457 32.968 23.5469 32.8401C23.8724 32.7021 24.0279 32.3858 23.9604 32.0373C23.8001 31.2102 23.6285 30.3851 23.4908 29.5543C23.3955 28.9795 23.3386 28.3977 23.2839 27.8171C23.2364 27.3136 23.2157 26.8075 23.1833 26.3027C23.1706 25.9243 23.1579 25.5458 23.1452 25.1673C23.1437 24.7785 23.1423 24.3895 23.1406 24.0007C23.1481 23.8404 23.1555 23.68 23.1629 23.5197C23.1704 23.2516 23.1776 22.9833 23.185 22.7152L23.1843 22.7157Z" fill="#7A2BF9"/>
<path d="M22.8338 40.1277C22.2434 40.055 21.6482 40.0094 21.0635 39.9047C19.0113 39.5373 17.106 38.7852 15.347 37.6644C15.3235 37.6492 15.2993 37.6351 15.2769 37.6183C15.1939 37.5568 15.1632 37.475 15.1937 37.3761C15.2241 37.2777 15.2937 37.2345 15.3977 37.2218C16.0752 37.139 16.756 37.074 17.4285 36.9602C18.5556 36.7696 19.6598 36.4759 20.7472 36.1252C21.5143 35.8778 22.2719 35.6011 23.033 35.3349C23.2617 35.255 23.4271 35.3253 23.5235 35.5555C23.9431 36.5565 24.4346 37.518 25.0919 38.3872C25.4135 38.8125 25.7682 39.2073 26.177 39.5507C26.2787 39.6362 26.337 39.7324 26.2979 39.8632C26.2612 39.9859 26.1616 40.0319 26.0406 40.0432C25.7404 40.0708 25.4404 40.0996 25.1402 40.1279C24.9045 40.1351 24.6686 40.1423 24.4329 40.1495C24.1435 40.15 23.8543 40.1505 23.5648 40.151C23.321 40.1433 23.0774 40.1354 22.8335 40.1277H22.8338Z" fill="#7A2CF8"/>
<path d="M16.5563 10.9447C15.9889 11.0043 15.4218 11.0638 14.8544 11.1235C14.8266 11.1264 14.799 11.131 14.7719 11.137C14.6759 11.1581 14.5924 11.1435 14.5532 11.0427C14.5136 10.9402 14.5609 10.8636 14.6466 10.8089C15.1074 10.5147 15.5586 10.2034 16.0321 9.93099C17.6531 8.99788 19.3923 8.3842 21.235 8.07244C21.7378 7.98724 22.2493 7.9534 22.7569 7.897C22.8589 7.88572 22.9614 7.87925 23.0636 7.87061C23.7087 7.87133 24.3538 7.87205 24.9989 7.87277C25.5509 7.93061 26.1032 7.98604 26.6549 8.04772C26.7761 8.06116 26.8573 8.13604 26.8873 8.2594C26.9141 8.37004 26.8729 8.4562 26.7886 8.52316C25.7984 9.31228 25.0863 10.3236 24.4769 11.4166C24.3193 11.6993 24.0773 11.8342 23.7618 11.8294C23.6535 11.8277 23.5453 11.7826 23.4382 11.7531C22.2697 11.4305 21.0841 11.1943 19.8807 11.0491C19.5723 11.0119 19.2613 10.9956 18.9515 10.9692C18.8327 10.9591 18.7139 10.9481 18.5953 10.9375C18.5687 10.932 18.5418 10.9222 18.5149 10.9217C17.996 10.9145 17.4771 10.9049 16.958 10.9039C16.8239 10.9037 16.6897 10.9306 16.5558 10.945L16.5563 10.9447Z" fill="#7A2CF8"/>
<path d="M32.3351 35.3356C32.4508 35.3329 32.5667 35.3272 32.6824 35.3284C32.8855 35.3305 33.0175 35.5345 32.9224 35.7179C32.7719 36.0085 32.6164 36.297 32.4467 36.5766C31.9922 37.3254 31.4663 38.0161 30.7679 38.5595C30.2884 38.9327 29.7554 39.1866 29.1451 39.2365C28.7438 39.2694 28.3603 39.1662 27.9974 38.9975C27.3633 38.7025 26.8704 38.2345 26.4369 37.6979C25.7681 36.8701 25.2864 35.9353 24.8808 34.9578C24.827 34.8282 24.8477 34.7029 24.941 34.6002C25.0413 34.4898 25.1685 34.4418 25.3197 34.4795C25.7805 34.5947 26.2394 34.718 26.7026 34.8224C27.8856 35.0891 29.0822 35.2633 30.2937 35.33C30.3057 35.3308 30.3175 35.3336 30.329 35.3356C30.4108 35.348 30.4927 35.3708 30.5747 35.3713C31.0838 35.3747 31.5928 35.3744 32.1019 35.3713C32.1796 35.3708 32.2574 35.348 32.3351 35.3356Z" fill="#7A2CF8"/>
<path d="M21.6725 26.3495C21.6814 26.4392 21.6907 26.5287 21.6991 26.6185C21.7911 27.5794 21.8585 28.5438 21.9823 29.5006C22.0826 30.2758 22.2509 31.0424 22.3889 31.8125C22.393 31.8353 22.3939 31.8589 22.399 31.9057C20.394 31.0417 18.5124 29.9967 16.7568 28.7264C17.035 28.3441 20.9743 25.6014 21.6504 25.3218C21.6504 25.4459 21.6504 25.5635 21.6504 25.6808C21.6579 25.9035 21.6651 26.1265 21.6725 26.3492V26.3495Z" fill="#7A2CF8"/>
<path d="M30.6526 33.89C29.7166 33.8576 28.7902 33.7396 27.8691 33.5747C27.7781 33.5584 27.7109 33.5142 27.6982 33.4168C27.684 33.3076 27.7505 33.2528 27.8403 33.207C29.4363 32.3879 31.0008 31.5126 32.5049 30.5337C33.2078 30.0762 33.8938 29.5931 34.5862 29.1196C34.6656 29.0653 34.739 29.0145 34.8362 29.0759C34.9373 29.1397 34.9248 29.2309 34.9078 29.3308C34.6946 30.5716 34.4179 31.797 34.0318 32.9963C33.9914 33.1216 33.9521 33.2476 33.9034 33.3695C33.8131 33.5951 33.648 33.7386 33.4032 33.7633C32.9316 33.8108 32.4591 33.8483 31.9872 33.8898C31.5425 33.8898 31.0975 33.8898 30.6528 33.8898L30.6526 33.89Z" fill="#7A2CF8"/>
<path d="M39.3138 28.6271C39.2744 29.3195 39.0834 29.9689 38.7712 30.5867C38.4251 31.2714 37.9345 31.8354 37.3168 32.2799C36.9618 32.5354 36.5711 32.7414 36.194 32.9655C36.0616 33.0442 35.925 33.0387 35.8026 32.9389C35.6764 32.8359 35.6524 32.703 35.6956 32.5496C36.0983 31.1161 36.3745 29.6571 36.5512 28.18C36.6028 27.748 36.7724 27.4062 37.107 27.1204C37.532 26.7575 37.9304 26.3632 38.3363 25.9782C38.5784 25.7485 38.9116 25.8234 39.0068 26.1402C39.1696 26.6812 39.279 27.2327 39.3133 27.7979C39.3133 28.0744 39.3133 28.3506 39.3136 28.6271H39.3138Z" fill="#7A2CF8"/>
<path d="M37.0319 18.1954C36.6424 18.1397 36.3786 17.8973 36.3088 17.5177C36.046 16.0897 35.6908 14.6869 35.1863 13.3237C35.1018 13.0954 35.0104 12.8699 34.9223 12.6431C34.9007 12.5874 34.8777 12.5319 34.8589 12.4751C34.8297 12.3851 34.8496 12.3059 34.9317 12.2552C35.0111 12.2063 35.0838 12.2295 35.1469 12.2948C35.4556 12.6131 35.776 12.9207 36.0721 13.2502C37.2976 14.6144 38.2643 16.1434 38.9629 17.8402C38.9752 17.8697 38.9884 17.899 38.9989 17.929C39.0748 18.1453 38.9118 18.3334 38.6843 18.3027C38.4313 18.2684 38.1769 18.2451 37.923 18.217C37.6259 18.2098 37.329 18.2024 37.0321 18.1952L37.0319 18.1954Z" fill="#7A2CF8"/>
<path d="M37.9668 19.6787C38.4374 19.7077 38.8939 19.7977 39.3122 20.024C39.5933 20.1759 39.8172 20.3862 39.8402 20.7301C39.8582 20.9975 39.8493 21.2675 39.7454 21.5204C39.6321 21.7967 39.5193 22.0741 39.3845 22.34C39.2683 22.569 38.9589 22.5738 38.8226 22.3571C38.3215 21.5607 37.7482 20.8187 37.1304 20.1107C37.0152 19.9784 37.0298 19.7423 37.2173 19.6763C37.4671 19.6772 37.717 19.6782 37.967 19.6789L37.9668 19.6787Z" fill="#7A2CF8"/>
<path d="M36.8199 22.7998C36.8187 22.7439 36.8204 22.6877 36.8154 22.6323C36.8058 22.5247 36.8703 22.4698 36.9575 22.4388C37.0501 22.4057 37.1207 22.4503 37.1732 22.5255C37.2939 22.6992 37.4187 22.8706 37.5323 23.0491C37.6861 23.2915 37.8351 23.5375 37.9784 23.7864C38.0905 23.9811 38.0723 24.151 37.9194 24.313C37.6511 24.5976 37.3787 24.8791 37.1 25.1537C37.059 25.194 36.9711 25.2086 36.9092 25.2007C36.825 25.1897 36.8082 25.1114 36.812 25.0327C36.8161 24.9531 36.8166 24.8731 36.8187 24.7932C36.8267 24.721 36.8346 24.6487 36.8425 24.5763C36.8495 24.5455 36.8622 24.5148 36.8622 24.4841C36.8634 23.9571 36.8639 23.43 36.8612 22.903C36.8612 22.8684 36.8343 22.8341 36.8199 22.7998Z" fill="#7B2DF7"/>
<path d="M35.8587 34.9666C35.8476 34.9846 35.8306 35.0312 35.7987 35.0626C35.4624 35.3924 35.1243 35.72 34.7859 36.0476C34.7136 36.1177 34.6304 36.1306 34.5471 36.0721C34.4626 36.0126 34.4547 35.9348 34.4979 35.8405C34.6088 35.5974 34.7146 35.3521 34.8195 35.1066C34.8588 35.0146 34.922 34.9642 35.0204 34.939C35.2172 34.8884 35.4106 34.8253 35.6062 34.7696C35.744 34.7305 35.8618 34.8104 35.8587 34.9669V34.9666Z" fill="#7B2EF6"/>
<path d="M40.1711 24.2815C40.1711 24.349 40.1786 24.4179 40.1678 24.4836C40.1625 24.5153 40.1272 24.5575 40.0977 24.5655C40.0687 24.5731 40.0175 24.5537 39.9967 24.5287C39.8697 24.3778 39.8817 24.1947 40.0276 24.0603C40.0547 24.0353 40.1061 24.0204 40.1416 24.0269C40.1594 24.03 40.1733 24.0907 40.1774 24.1267C40.1834 24.1776 40.1788 24.2299 40.1788 24.2815C40.1762 24.2815 40.1733 24.2815 40.1707 24.2815H40.1711Z" fill="#7D32F2"/>
<path d="M32.3353 35.3359C32.2575 35.3484 32.1797 35.3712 32.102 35.3717C31.5929 35.3751 31.0839 35.3751 30.5749 35.3717C30.4928 35.3712 30.4109 35.3484 30.3291 35.3359C30.6322 35.3417 30.9351 35.352 31.238 35.3518C31.6037 35.3513 31.9695 35.3417 32.3353 35.3362V35.3359Z" fill="#8660C0"/>
<path d="M16.5562 10.9449C16.6903 10.9305 16.8245 10.9036 16.9584 10.9038C17.4773 10.9048 17.9964 10.9141 18.5153 10.9216C18.5421 10.9221 18.569 10.9319 18.5957 10.9374C18.329 10.9319 18.0621 10.9199 17.7957 10.9225C17.3983 10.9264 17.0009 10.9405 16.6037 10.9499C16.5878 10.9504 16.572 10.9468 16.5564 10.9451L16.5562 10.9449Z" fill="#BDAADA"/>
<path d="M36.8203 22.7998C36.8347 22.8341 36.8613 22.8687 36.8616 22.903C36.8642 23.43 36.8637 23.9571 36.8625 24.4841C36.8625 24.5148 36.8496 24.5456 36.8428 24.5763C36.8414 24.4167 36.8402 24.2571 36.8388 24.0975C36.8392 23.7862 36.8407 23.4749 36.8395 23.1636C36.8395 23.13 36.8258 23.0964 36.8184 23.0626C36.8191 22.975 36.8198 22.8874 36.8205 22.7998H36.8203Z" fill="#7139C9"/>
<path d="M24.9988 7.8728C24.3537 7.87208 23.7086 7.87136 23.0635 7.87064C23.1993 7.86176 23.3349 7.85312 23.4708 7.84424C23.8228 7.84448 24.1752 7.84472 24.5272 7.84496C24.6844 7.85432 24.8416 7.86344 24.9988 7.8728Z" fill="#7C4FC3"/>
<path d="M7.84978 23.5661C7.85074 23.9217 7.85194 24.2772 7.85218 24.6329C7.85218 24.6765 7.84858 24.7205 7.84666 24.7641C7.84642 24.2544 7.84594 23.7446 7.8457 23.2349C7.84714 23.3453 7.84834 23.4557 7.84978 23.5661Z" fill="#AB69FF"/>
<path d="M23.5651 40.1509C23.8545 40.1504 24.1437 40.1499 24.4332 40.1494C24.5366 40.1511 24.6401 40.1528 24.7435 40.1545C24.2407 40.1545 23.7379 40.1545 23.2349 40.1545C23.3448 40.1533 23.4549 40.1521 23.5651 40.1509Z" fill="#AB69FF"/>
<path d="M24.5272 7.84468C24.1751 7.84444 23.8228 7.8442 23.4707 7.84396C23.7361 7.83724 24.0018 7.8286 24.2673 7.82524C24.3537 7.82428 24.4405 7.83772 24.5272 7.84468Z" fill="#D79FFF"/>
<path d="M36.8179 23.0625C36.8253 23.0961 36.839 23.1297 36.839 23.1635C36.8402 23.4748 36.839 23.7861 36.8383 24.0974C36.8332 24.0988 36.8282 24.1005 36.8232 24.1019C36.8215 23.7554 36.8196 23.4091 36.8179 23.0625Z" fill="#EAB7FF"/>
<path d="M35.3526 22.7498C35.3454 22.6997 35.3322 22.6495 35.3317 22.5993C35.3288 22.3255 35.3288 22.0517 35.3281 21.7778C35.3363 22.1018 35.3444 22.4258 35.3526 22.7498Z" fill="#7E54C3"/>
<path d="M35.3281 25.4321C35.3291 25.1455 35.3296 24.8592 35.332 24.5726C35.3322 24.5417 35.3432 24.5107 35.3492 24.48C35.3423 24.7973 35.3353 25.1148 35.3281 25.4321Z" fill="#7E54C3"/>
<path d="M23.1846 22.7158C23.1772 22.9839 23.17 23.2522 23.1625 23.5203C23.1608 23.4161 23.1594 23.312 23.1577 23.2078C23.1666 23.0439 23.1757 22.88 23.1846 22.7158Z" fill="#7E54C3"/>
<path d="M23.1577 23.208C23.1593 23.3122 23.1608 23.4163 23.1625 23.5205C23.155 23.6808 23.1476 23.8411 23.1401 24.0014C23.1459 23.737 23.1519 23.4725 23.1577 23.208Z" fill="#AB69FF"/>
<path d="M18.0018 12.4105C17.8571 12.4031 17.7123 12.3956 17.5674 12.3882C17.8227 12.3942 18.0781 12.3999 18.3337 12.4059C18.2231 12.4074 18.1124 12.4091 18.0018 12.4105Z" fill="#AB69FF"/>
<path d="M7.84978 23.566C7.84834 23.4556 7.84714 23.3452 7.8457 23.2348C7.85458 23.1011 7.8637 22.9677 7.87258 22.834C7.8649 23.0781 7.85722 23.3219 7.84978 23.566Z" fill="#7E54C3"/>
<path d="M37.967 19.6789C37.7172 19.6779 37.4674 19.677 37.2173 19.6763C37.4671 19.6772 37.717 19.6782 37.967 19.6789Z" fill="#7C4FC3"/>
<path d="M18.0015 12.4108C18.1121 12.4094 18.2227 12.4077 18.3334 12.4062C18.4668 12.4151 18.6005 12.4242 18.7339 12.4331C18.4896 12.4257 18.2455 12.4182 18.0015 12.4108Z" fill="#7E54C3"/>
<path d="M23.5648 40.151C23.4546 40.1522 23.3447 40.1534 23.2345 40.1546C23.1009 40.1454 22.9672 40.1366 22.8335 40.1274C23.0773 40.1351 23.3209 40.143 23.5648 40.1507V40.151Z" fill="#7E54C3"/>
<path d="M17.521 12.3874C17.3758 12.3946 17.2306 12.4018 17.0854 12.409C16.9909 12.4078 16.8963 12.4066 16.8018 12.4054C17.0415 12.3994 17.2813 12.3934 17.5208 12.3872L17.521 12.3874Z" fill="#AB69FF"/>
<path d="M24.7434 40.1551C24.64 40.1534 24.5365 40.1517 24.4331 40.15C24.6688 40.1428 24.9047 40.1356 25.1404 40.1284C25.0079 40.1373 24.8757 40.1462 24.7434 40.1553V40.1551Z" fill="#7E54C3"/>
<path d="M36.8234 24.1017C36.8284 24.1 36.8335 24.0986 36.8385 24.0972C36.84 24.2568 36.8412 24.4164 36.8426 24.576C36.8347 24.6482 36.8268 24.7204 36.8188 24.7929C36.8203 24.5625 36.822 24.3321 36.8234 24.102V24.1017Z" fill="#B779FF"/>
<path d="M21.6725 26.3495C21.665 26.1268 21.6578 25.9039 21.6504 25.6812C21.6581 25.8211 21.6674 25.961 21.673 26.1009C21.6761 26.1837 21.673 26.2667 21.6727 26.3495H21.6725Z" fill="#7C4FC3"/>
<path d="M16.8019 12.4058C16.8964 12.407 16.991 12.4082 17.0855 12.4094C16.8657 12.417 16.6459 12.425 16.4263 12.4326C16.5515 12.4238 16.6768 12.4146 16.8019 12.4058Z" fill="#7E54C3"/>
</svg>
