<svg xmlns="http://www.w3.org/2000/svg" width="24" height="24" viewBox="0 0 24 24" fill="none">
  <path fill-rule="evenodd" clip-rule="evenodd" d="M12.4005 4H5.60049C5.26912 4 5.00049 4.26863 5.00049 4.6V16.4C5.00049 16.7314 5.26912 17 5.60049 17H9.00049V18.5H5.60049C4.44069 18.5 3.50049 17.5598 3.50049 16.4V4.6C3.50049 3.4402 4.44069 2.5 5.60049 2.5H12.4005C13.5603 2.5 14.5005 3.4402 14.5005 4.6V5H13.0005V4.6C13.0005 4.26863 12.7319 4 12.4005 4ZM11.6005 7H18.4005C18.7319 7 19.0005 7.26863 19.0005 7.6V19.4C19.0005 19.7314 18.7319 20 18.4005 20H11.6005C11.2691 20 11.0005 19.7314 11.0005 19.4V7.6C11.0005 7.26863 11.2691 7 11.6005 7ZM9.50049 7.6C9.50049 6.4402 10.4407 5.5 11.6005 5.5H18.4005C19.5603 5.5 20.5005 6.4402 20.5005 7.6V19.4C20.5005 20.5598 19.5603 21.5 18.4005 21.5H11.6005C10.4407 21.5 9.50049 20.5598 9.50049 19.4V7.6Z" fill="#F1F2F4"/>
</svg>