<svg xmlns="http://www.w3.org/2000/svg" width="24" height="24" viewBox="0 0 24 24" fill="none">
  <path d="M13.6818 4.38623C13.0937 2.8389 10.9048 2.8389 10.3167 4.38623L8.88283 8.15882C8.84078 8.26947 8.73759 8.34505 8.6194 8.35175L4.62 8.57871C2.98825 8.67131 2.3145 10.7153 3.57136 11.76L6.70767 14.3671C6.79705 14.4414 6.83547 14.5606 6.80629 14.6731L5.77777 18.6386C5.36417 20.2332 7.13256 21.4996 8.50907 20.5945L11.8344 18.4079C11.9345 18.3421 12.0641 18.3421 12.1641 18.4079L15.4895 20.5945C16.866 21.4996 18.6344 20.2332 18.2208 18.6386L17.1922 14.6731C17.1631 14.5606 17.2015 14.4414 17.2909 14.3671L20.4272 11.76C21.684 10.7153 21.0103 8.67131 19.3785 8.57871L15.3791 8.35175C15.261 8.34505 15.1578 8.26947 15.1157 8.15882L13.6818 4.38623Z" fill="#F1F2F4" stroke-width="1.5" stroke-linejoin="round"/>
</svg>