<svg width="20" height="20" viewBox="0 0 20 20" fill="none" xmlns="http://www.w3.org/2000/svg">
<path d="M19.9999 9.99996C19.9999 15.5228 15.5228 19.9999 9.99996 19.9999C4.47714 19.9999 0 15.5228 0 9.99996C0 4.47714 4.47714 0 9.99996 0C15.5228 0 19.9999 4.47714 19.9999 9.99996Z" fill="white"/>
<path fill-rule="evenodd" clip-rule="evenodd" d="M9.99996 19.4999C15.2466 19.4999 19.4999 15.2466 19.4999 9.99996C19.4999 4.75328 15.2466 0.499998 9.99996 0.499998C4.75328 0.499998 0.499998 4.75328 0.499998 9.99996C0.499998 15.2466 4.75328 19.4999 9.99996 19.4999ZM9.99996 19.9999C15.5228 19.9999 19.9999 15.5228 19.9999 9.99996C19.9999 4.47714 15.5228 0 9.99996 0C4.47714 0 0 4.47714 0 9.99996C0 15.5228 4.47714 19.9999 9.99996 19.9999Z" fill="#4CA3FF" fill-opacity="0.4"/>
<path fill-rule="evenodd" clip-rule="evenodd" d="M13.0013 8.9498L13.0011 8.95036C13.5225 9.59831 13.8341 10.419 13.8341 11.3116C13.8341 12.2175 13.5132 13.0493 12.9777 13.7017L12.9315 13.7579L12.9193 13.6865C12.9089 13.6258 12.8967 13.5645 12.8825 13.5027C12.6145 12.3357 11.7413 11.3351 10.3042 10.5249C9.33372 9.97922 8.77821 9.32221 8.63236 8.57573C8.53818 8.09302 8.60821 7.60818 8.74354 7.19289C8.87883 6.77774 9.08008 6.42991 9.25106 6.2205L9.25117 6.22036L9.81022 5.54289C9.90827 5.42409 10.0917 5.42409 10.1898 5.54289L13.0013 8.9498ZM13.8855 8.27295L13.8856 8.2727L10.1385 3.73202C10.067 3.64532 9.93301 3.64532 9.86146 3.73202L6.11429 8.27275L6.11439 8.273L6.1022 8.28799C5.41265 9.13597 5 10.2136 5 11.3867C5 14.1188 7.23852 16.3337 9.99999 16.3337C12.7614 16.3337 15 14.1188 15 11.3867C15 10.2136 14.5873 9.13599 13.8978 8.28799L13.8855 8.27295ZM7.01087 8.93517L7.01103 8.93499L7.34618 8.52883L7.35632 8.60382C7.36434 8.66321 7.37407 8.72291 7.38561 8.78288C7.60247 9.91049 8.37717 10.8507 9.67237 11.5789C10.7982 12.2139 11.4537 12.9442 11.6426 13.745C11.7214 14.0792 11.7354 14.4081 11.7013 14.6956L11.6992 14.7134L11.683 14.7212C11.1748 14.9672 10.6036 15.1053 9.99987 15.1053C7.88232 15.1053 6.16562 13.4069 6.16562 11.3116C6.16562 10.412 6.48208 9.58545 7.01087 8.93517Z" fill="#4CA3FF"/>
</svg>
