<svg xmlns="http://www.w3.org/2000/svg" width="88" height="32" viewBox="0 0 88 32" fill="none" data-testid="logo"><path d="M16.1054 11.5608C17.5603 12.4114 19.2132 12.9412 20.9745 13.0575C21.2185 13.0737 21.4645 13.0818 21.7123 13.0818C23.2287 13.0818 24.6761 12.7758 26 12.22V7.72169C24.6761 8.27743 23.2287 8.58348 21.7123 8.58348C19.6748 8.58348 17.7618 8.03087 16.1054 7.0624C16.0702 7.04179 16.035 7.02099 16 7V11.4968C16.0353 11.5179 16.0704 11.5393 16.1054 11.5608Z" fill="white"></path><path d="M10.2877 23.4084C12.3252 23.4084 14.2382 23.961 15.8946 24.9295C15.9344 24.9527 15.9741 24.9762 16.0136 25V20.5032C15.9738 20.4794 15.9341 20.4554 15.8946 20.4311C14.4397 19.5805 12.7869 19.0506 11.0255 18.9343C10.7815 18.9182 10.5355 18.91 10.2877 18.91C8.7713 18.91 7.32394 19.2161 6 19.7718V24.2702C7.32394 23.7144 8.7713 23.4084 10.2877 23.4084Z" fill="white"></path><path d="M10.2877 16.6608C10.3376 16.6608 10.3876 16.6612 10.4374 16.6618C11.0437 16.6699 11.6387 16.7269 12.2188 16.8292C13.5343 17.0613 14.7732 17.5263 15.8945 18.1819C15.9653 18.2233 16.0356 18.2654 16.1055 18.3083C17.5603 19.1589 19.2132 19.6888 20.9745 19.8051C21.1293 19.8153 21.2849 19.8223 21.4413 19.8261C21.4817 19.8271 21.5221 19.8278 21.5626 19.8284C21.6124 19.829 21.6624 19.8294 21.7123 19.8294C23.2287 19.8294 24.6761 19.5233 26 18.9676V14.4692C24.6761 15.025 23.2287 15.331 21.7123 15.331C21.6624 15.331 21.6124 15.3307 21.5626 15.33C20.9563 15.3219 20.3613 15.2649 19.7812 15.1626C18.4657 14.9306 17.2268 14.4656 16.1054 13.8099C16.0347 13.7686 15.9644 13.7264 15.8946 13.6836C14.4397 12.8329 12.7868 12.3031 11.0255 12.1868C10.8707 12.1766 10.7151 12.1695 10.5587 12.1658C10.5183 12.1648 10.4779 12.164 10.4374 12.1635C10.3876 12.1628 10.3376 12.1625 10.2877 12.1625C8.7713 12.1625 7.32394 12.4685 6 13.0243V17.5226C7.32394 16.9669 8.7713 16.6608 10.2877 16.6608Z" fill="white"></path><path d="M37.12 22V10.48H41.648C42.3787 10.48 42.992 10.6293 43.488 10.928C43.984 11.2267 44.3573 11.6133 44.608 12.088C44.8587 12.5573 44.984 13.0533 44.984 13.576C44.984 14.2107 44.8267 14.7547 44.512 15.208C44.2027 15.6613 43.784 15.9707 43.256 16.136L43.24 15.744C43.976 15.9253 44.5413 16.28 44.936 16.808C45.3307 17.3307 45.528 17.9413 45.528 18.64C45.528 19.3173 45.392 19.9067 45.12 20.408C44.8533 20.9093 44.4613 21.3013 43.944 21.584C43.432 21.8613 42.8107 22 42.08 22H37.12ZM38.816 20.408H41.824C42.2027 20.408 42.5413 20.336 42.84 20.192C43.144 20.048 43.3813 19.8427 43.552 19.576C43.728 19.304 43.816 18.9813 43.816 18.608C43.816 18.2613 43.7387 17.9493 43.584 17.672C43.4347 17.3893 43.216 17.168 42.928 17.008C42.6453 16.8427 42.312 16.76 41.928 16.76H38.816V20.408ZM38.816 15.184H41.624C41.9333 15.184 42.2107 15.1227 42.456 15C42.7067 14.872 42.904 14.6907 43.048 14.456C43.1973 14.216 43.272 13.928 43.272 13.592C43.272 13.144 43.1227 12.776 42.824 12.488C42.5253 12.2 42.1253 12.056 41.624 12.056H38.816V15.184ZM46.96 22V10.24H48.632V22H46.96ZM53.9704 22.232C53.373 22.232 52.8717 22.136 52.4664 21.944C52.061 21.752 51.7304 21.5013 51.4744 21.192C51.2237 20.8773 51.0317 20.536 50.8984 20.168C50.765 19.8 50.6744 19.44 50.6264 19.088C50.5784 18.736 50.5544 18.4267 50.5544 18.16V13.36H52.2504V17.608C52.2504 17.944 52.277 18.2907 52.3304 18.648C52.389 19 52.4957 19.328 52.6504 19.632C52.8104 19.936 53.0317 20.1813 53.3144 20.368C53.6024 20.5547 53.9757 20.648 54.4344 20.648C54.733 20.648 55.0157 20.6 55.2824 20.504C55.549 20.4027 55.781 20.2427 55.9784 20.024C56.181 19.8053 56.3384 19.5173 56.4504 19.16C56.5677 18.8027 56.6264 18.368 56.6264 17.856L57.6664 18.248C57.6664 19.032 57.5197 19.7253 57.2264 20.328C56.933 20.9253 56.5117 21.392 55.9624 21.728C55.413 22.064 54.749 22.232 53.9704 22.232ZM56.8264 22V19.504H56.6264V13.36H58.3144V22H56.8264ZM64.0701 22.24C63.2115 22.24 62.4568 22.0533 61.8061 21.68C61.1608 21.3013 60.6568 20.776 60.2941 20.104C59.9368 19.4267 59.7581 18.6427 59.7581 17.752C59.7581 16.808 59.9341 15.9893 60.2861 15.296C60.6435 14.6027 61.1395 14.0667 61.7741 13.688C62.4088 13.3093 63.1475 13.12 63.9901 13.12C64.8701 13.12 65.6195 13.3253 66.2381 13.736C66.8568 14.1413 67.3181 14.72 67.6221 15.472C67.9315 16.224 68.0541 17.1173 67.9901 18.152H66.3181V17.544C66.3075 16.5413 66.1155 15.8 65.7421 15.32C65.3741 14.84 64.8115 14.6 64.0541 14.6C63.2168 14.6 62.5875 14.864 62.1661 15.392C61.7448 15.92 61.5341 16.6827 61.5341 17.68C61.5341 18.6293 61.7448 19.3653 62.1661 19.888C62.5875 20.4053 63.1955 20.664 63.9901 20.664C64.5128 20.664 64.9635 20.5467 65.3421 20.312C65.7261 20.072 66.0248 19.7307 66.2381 19.288L67.8781 19.808C67.5421 20.5813 67.0328 21.1813 66.3501 21.608C65.6675 22.0293 64.9075 22.24 64.0701 22.24ZM60.9901 18.152V16.848H67.1581V18.152H60.9901ZM70.257 22V13.056C70.257 12.8373 70.265 12.6053 70.281 12.36C70.297 12.1093 70.3423 11.864 70.417 11.624C70.497 11.3787 70.6277 11.1547 70.809 10.952C71.0277 10.712 71.2677 10.5413 71.529 10.44C71.7903 10.3387 72.049 10.28 72.305 10.264C72.5663 10.248 72.8063 10.24 73.025 10.24H74.113V11.616H73.105C72.7103 11.616 72.4143 11.7147 72.217 11.912C72.025 12.104 71.929 12.3787 71.929 12.736V22H70.257ZM68.825 14.704V13.36H74.113V14.704H68.825ZM75.4613 11.944V10.32H77.1333V11.944H75.4613ZM75.4613 22V13.36H77.1333V22L75.4613 22ZM85.2796 22V17.752C85.2796 17.416 85.2503 17.072 85.1916 16.72C85.1383 16.3627 85.0316 16.032 84.8716 15.728C84.717 15.424 84.4956 15.1787 84.2076 14.992C83.925 14.8053 83.5543 14.712 83.0956 14.712C82.797 14.712 82.5143 14.7627 82.2476 14.864C81.981 14.96 81.7463 15.1173 81.5436 15.336C81.3463 15.5547 81.189 15.8427 81.0716 16.2C80.9596 16.5573 80.9036 16.992 80.9036 17.504L79.8636 17.112C79.8636 16.328 80.0103 15.6373 80.3036 15.04C80.597 14.4373 81.0183 13.968 81.5676 13.632C82.117 13.296 82.781 13.128 83.5596 13.128C84.157 13.128 84.6583 13.224 85.0636 13.416C85.469 13.608 85.797 13.8613 86.0476 14.176C86.3036 14.4853 86.4983 14.824 86.6316 15.192C86.765 15.56 86.8556 15.92 86.9036 16.272C86.9516 16.624 86.9756 16.9333 86.9756 17.2V22H85.2796ZM79.2076 22V13.36L80.7036 13.36V15.856H80.9036V22H79.2076Z" fill="white"></path></svg>